<?xml version="1.0" encoding="UTF-8"?>
<svg id="Calque_2" data-name="Calque 2" xmlns="http://www.w3.org/2000/svg" viewBox="0 0 168.82 229.73">
  <defs>
    <style>
      .cls-1 {
        fill: none;
        stroke: #fff;
        stroke-linecap: round;
        stroke-miterlimit: 10;
        stroke-width: 3.59px;
      }

      .cls-2 {
        fill: #4fe8cb;
      }
    </style>
  </defs>
  <g id="Calque_8" data-name="Calque 8">
    <g>
      <rect class="cls-2" x="75.64" y="78.29" width="13.6" height="151.44" rx="6.58" ry="6.58"/>
      <rect class="cls-2" x="75.64" y="144.72" width="13.6" height="22.01" rx="6.8" ry="6.8" transform="translate(238.16 73.28) rotate(90)"/>
      <path class="cls-2" d="M93.45,80.93c0,1.88-.76,3.58-1.99,4.81-1.23,1.23-2.93,1.99-4.81,1.99h-8.41c-3.76,0-6.8-3.05-6.8-6.8,0-1.45.45-2.79,1.23-3.9,3.18.83,6.47,1.26,9.78,1.26s6.6-.43,9.78-1.26c.78,1.1,1.23,2.45,1.23,3.9Z"/>
      <rect class="cls-2" x="75.64" y="82.62" width="13.6" height="22.01" rx="6.8" ry="6.8" transform="translate(176.07 11.18) rotate(90)"/>
      <polygon class="cls-2" points="75.64 163.7 75.64 221.32 60.43 221.32 60.43 212.91 55.24 212.91 55.24 221.32 40.03 221.32 40.03 194.85 67.24 194.85 67.24 189.65 40.03 189.65 40.03 163.7 55.24 163.7 55.24 172.11 60.43 172.11 60.43 163.7 75.64 163.7"/>
      <path class="cls-2" d="M111.21,16.61C105.47,6.67,94.74,0,82.44,0c-.11,0-.22,0-.33,0,0,0,0,0,0,0s0,0,0,0c-12.03.12-22.53,6.63-28.25,16.31-.06.09-.11.19-.17.29-.11.19-.22.39-.33.59-2.62,4.74-4.12,10.2-4.12,16.02s1.5,11.27,4.12,16.02c.11.2.22.4.33.59l12.3,7.1v11.78c4.86,2.78,10.48,4.37,16.48,4.37s11.61-1.59,16.47-4.37v-11.78l12.3-7.1c2.83-4.88,4.45-10.56,4.45-16.61s-1.62-11.73-4.45-16.61ZM65.3,50.28c-6.06,0-10.97-4.91-10.97-10.97s4.91-10.96,10.97-10.96,10.96,4.91,10.96,10.96-4.9,10.97-10.96,10.97ZM84.81,53.23h-4.73c-2.45,0-3.98-2.65-2.76-4.77l2.36-4.1c.61-1.06,1.68-1.59,2.75-1.59s2.15.53,2.76,1.59l2.36,4.1c1.22,2.12-.3,4.77-2.75,4.77ZM99.58,50.28c-6.05,0-10.96-4.91-10.96-10.97s4.91-10.96,10.96-10.96,10.97,4.91,10.97,10.96-4.9,10.97-10.97,10.97Z"/>
      <path class="cls-1" d="M54.34,66.41c-42.99,32.57-63.6-3.6-46.58,0,15.15,3.21,31.49,50.11,61.78,60.47"/>
      <path class="cls-1" d="M97.31,137.67c62.61,25.29,80.69-8.17,63.63-7.64-23.84.75-23.92,47.8-64.07,63.06"/>
    </g>
  </g>
</svg>