<?xml version="1.0" encoding="UTF-8"?>
<svg id="Calque_2" data-name="Calque 2" xmlns="http://www.w3.org/2000/svg" viewBox="0 0 66.44 73.09">
  <defs>
    <style>
      .cls-1 {
        fill: #4fe8cb;
      }
    </style>
  </defs>
  <g id="Calque_8" data-name="Calque 8">
    <path class="cls-1" d="M61.99,16.61C56.25,6.67,45.51,0,33.22,0c-.11,0-.22,0-.33,0,0,0,0,0,0,0s0,0,0,0C20.85.13,10.35,6.64,4.62,16.32c-.06.09-.11.19-.17.29-.11.19-.22.39-.33.59C1.5,21.95,0,27.41,0,33.22s1.5,11.27,4.12,16.02c.11.2.22.4.33.59l12.3,7.1v11.78c4.86,2.78,10.48,4.37,16.48,4.37s11.61-1.59,16.47-4.37v-11.78l12.3-7.1c2.83-4.88,4.45-10.56,4.45-16.61s-1.62-11.73-4.45-16.61ZM16.08,50.28c-6.06,0-10.97-4.91-10.97-10.97s4.91-10.96,10.97-10.96,10.96,4.91,10.96,10.96-4.9,10.97-10.96,10.97ZM35.59,53.23h-4.73c-2.45,0-3.98-2.65-2.76-4.77l2.36-4.1c.61-1.06,1.68-1.59,2.75-1.59s2.15.53,2.76,1.59l2.36,4.1c1.22,2.12-.3,4.77-2.75,4.77ZM50.36,50.28c-6.05,0-10.96-4.91-10.96-10.97s4.91-10.96,10.96-10.96,10.97,4.91,10.97,10.96-4.9,10.97-10.97,10.97Z"/>
  </g>
</svg>