<?xml version="1.0" encoding="UTF-8"?>
<svg id="Calque_2" data-name="Calque 2" xmlns="http://www.w3.org/2000/svg" viewBox="0 0 351.19 351.19">
  <defs>
    <style>
      .cls-1 {
        stroke: #a5a5a5;
        stroke-dasharray: 12.24 12.24 .1 12.24 12.24 .1;
        stroke-width: 6.88px;
      }

      .cls-1, .cls-2 {
        fill: none;
        stroke-linecap: round;
        stroke-miterlimit: 10;
      }

      .cls-3, .cls-4 {
        fill: #ff0073;
      }

      .cls-5 {
        letter-spacing: -.02em;
      }

      .cls-4 {
        font-size: 20.65px;
      }

      .cls-4, .cls-6 {
        font-family: NewakeDemo, Newake;
      }

      .cls-2 {
        stroke: #fff;
        stroke-width: 3.59px;
      }

      .cls-6 {
        fill: #fff;
        font-size: 30.97px;
      }

      .cls-7 {
        letter-spacing: -.04em;
      }
    </style>
  </defs>
  <g id="Calque_8" data-name="Calque 8">
    <rect class="cls-3" x="171.01" y="138.8" width="13.6" height="151.44" rx="6.58" ry="6.58"/>
    <rect class="cls-3" x="171.01" y="205.23" width="13.6" height="22.01" rx="6.8" ry="6.8" transform="translate(394.04 38.42) rotate(90)"/>
    <path class="cls-3" d="M188.82,141.44c0,1.88-.76,3.58-1.99,4.81-1.23,1.23-2.93,1.99-4.81,1.99h-8.41c-3.76,0-6.8-3.05-6.8-6.8,0-1.45.45-2.79,1.23-3.9,3.18.83,6.47,1.26,9.78,1.26s6.6-.43,9.78-1.26c.78,1.1,1.23,2.45,1.23,3.9Z"/>
    <rect class="cls-3" x="171.01" y="143.13" width="13.6" height="22.01" rx="6.8" ry="6.8" transform="translate(331.95 -23.67) rotate(90)"/>
    <polygon class="cls-3" points="171.01 224.21 171.01 281.83 155.8 281.83 155.8 273.42 150.61 273.42 150.61 281.83 135.4 281.83 135.4 255.36 162.6 255.36 162.6 250.16 135.4 250.16 135.4 224.21 150.61 224.21 150.61 232.62 155.8 232.62 155.8 224.21 171.01 224.21"/>
    <path class="cls-3" d="M206.58,77.12c-5.74-9.94-16.48-16.61-28.77-16.61-.11,0-.22,0-.33,0,0,0,0,0,0,0s0,0,0,0c-12.03.12-22.53,6.63-28.25,16.31-.06.09-.11.19-.17.29-.11.19-.22.39-.33.59-2.62,4.74-4.12,10.2-4.12,16.02s1.5,11.27,4.12,16.02c.11.2.22.4.33.59l12.3,7.1v11.78c4.86,2.78,10.48,4.37,16.48,4.37s11.61-1.59,16.47-4.37v-11.78l12.3-7.1c2.83-4.88,4.45-10.56,4.45-16.61s-1.62-11.73-4.45-16.61ZM160.67,110.79c-6.06,0-10.97-4.91-10.97-10.97s4.91-10.96,10.97-10.96,10.96,4.91,10.96,10.96-4.9,10.97-10.96,10.97ZM180.18,113.74h-4.73c-2.45,0-3.98-2.65-2.76-4.77l2.36-4.1c.61-1.06,1.68-1.59,2.75-1.59s2.15.53,2.76,1.59l2.36,4.1c1.22,2.12-.3,4.77-2.75,4.77ZM194.95,110.79c-6.05,0-10.96-4.91-10.96-10.97s4.91-10.96,10.96-10.96,10.97,4.91,10.97,10.96-4.9,10.97-10.97,10.97Z"/>
    <text class="cls-6" transform="translate(64.56 104.34) rotate(-54.09)"><tspan x="0" y="0">L</tspan></text>
    <text class="cls-6" transform="translate(75.9 88.85) rotate(-44.36)"><tspan x="0" y="0">A</tspan></text>
    <text class="cls-6" transform="translate(95.68 70.86) rotate(-36.45)"><tspan x="0" y="0"> </tspan></text>
    <text class="cls-6" transform="translate(103.45 64.84) rotate(-28.39)"><tspan x="0" y="0">C</tspan></text>
    <text class="cls-6" transform="translate(125.91 53.02) rotate(-17.06)"><tspan x="0" y="0">O</tspan></text>
    <text class="cls-6" transform="translate(151.73 45.36) rotate(-4.59)"><tspan x="0" y="0">M</tspan></text>
    <text class="cls-6" transform="translate(182.68 43.77) rotate(6.87)"><tspan x="0" y="0">P</tspan></text>
    <text class="cls-6" transform="translate(202.05 46.09) rotate(16.13)"><tspan x="0" y="0">A</tspan></text>
    <text class="cls-6" transform="translate(225.1 52.9) rotate(27.25)"><tspan x="0" y="0">G</tspan></text>
    <text class="cls-6" transform="translate(250.31 66.66) rotate(38.76)"><tspan x="0" y="0">N</tspan></text>
    <text class="cls-6" transform="translate(269.4 83.05) rotate(46.99)"><tspan x="0" y="0">I</tspan></text>
    <text class="cls-6" transform="translate(278.15 92.6) rotate(54.15)"><tspan x="0" y="0">E</tspan></text>
    <text class="cls-6" transform="translate(56.53 272.17) rotate(47.63)"><tspan x="0" y="0">B</tspan></text>
    <text class="cls-6" transform="translate(73.93 290.35) rotate(38.25)"><tspan x="0" y="0">R</tspan></text>
    <text class="cls-6" transform="translate(94.27 305.32) rotate(30.75)"><tspan x="0" y="0">I</tspan></text>
    <text class="cls-6" transform="translate(107.64 313.13) rotate(22.63)"><tspan x="0" y="0">N</tspan></text>
    <text class="cls-6" transform="translate(133.54 322.81) rotate(15.1)"><tspan x="0" y="0"> </tspan></text>
    <text class="cls-6" transform="translate(145.41 326) rotate(7.53)"><tspan x="0" y="0">D</tspan></text>
    <text class="cls-6" transform="translate(173.15 328.8) rotate(-1.79)"><tspan x="0" y="0">E</tspan></text>
    <text class="cls-6" transform="translate(195.39 327.39) rotate(-8.17)"><tspan x="0" y="0"> </tspan></text>
    <text class="cls-6" transform="translate(207.27 325.53) rotate(-14.54)"><tspan x="0" y="0">F</tspan></text>
    <text class="cls-6" transform="translate(227.74 320) rotate(-24.19)"><tspan x="0" y="0">O</tspan></text>
    <text class="cls-6" transform="translate(256.05 306.03) rotate(-34.45)"><tspan x="0" y="0">L</tspan></text>
    <text class="cls-6" transform="translate(273.49 293.31) rotate(-41.16)"><tspan x="0" y="0">I</tspan></text>
    <text class="cls-6" transform="translate(284.77 283.11) rotate(-48.16)"><tspan x="0" y="0">E</tspan></text>
    <circle class="cls-1" cx="175.6" cy="175.6" r="172.16"/>
    <text class="cls-4" transform="translate(24.42 182.97)"><tspan class="cls-5" x="0" y="0">2</tspan><tspan x="10.92" y="0">2</tspan></text>
    <text class="cls-4" transform="translate(304.49 182.97)"><tspan class="cls-7" x="0" y="0">2</tspan><tspan x="10.59" y="0">6</tspan></text>
    <path class="cls-2" d="M149.7,126.92c-42.99,32.57-63.6-3.6-46.58,0,15.15,3.21,31.49,50.11,61.78,60.47"/>
    <path class="cls-2" d="M192.68,198.18c62.61,25.29,80.69-8.17,63.63-7.64-23.84.75-23.92,47.8-64.07,63.06"/>
  </g>
</svg>