<?xml version="1.0" encoding="UTF-8"?>
<svg id="Calque_2" data-name="Calque 2" xmlns="http://www.w3.org/2000/svg" viewBox="0 0 351.19 351.19">
  <defs>
    <style>
      .cls-1 {
        font-size: 20.65px;
      }

      .cls-1, .cls-2 {
        font-family: NewakeDemo, Newake;
      }

      .cls-1, .cls-3 {
        fill: #4fe8cb;
      }

      .cls-4 {
        stroke: #a5a5a5;
        stroke-dasharray: 12.24 12.24 .1 12.24 12.24 .1;
        stroke-width: 6.88px;
      }

      .cls-4, .cls-5 {
        fill: none;
        stroke-linecap: round;
        stroke-miterlimit: 10;
      }

      .cls-6, .cls-2 {
        fill: #fff;
      }

      .cls-7 {
        letter-spacing: -.02em;
      }

      .cls-5 {
        stroke: #fff;
        stroke-width: 3.59px;
      }

      .cls-2 {
        font-size: 30.97px;
      }

      .cls-8 {
        letter-spacing: -.04em;
      }
    </style>
  </defs>
  <g id="Calque_8" data-name="Calque 8">
    <circle class="cls-4" cx="175.6" cy="175.6" r="172.16"/>
    <g>
      <g>
        <path class="cls-6" d="M166.91,3.62c.13,1.89-1.3,3.54-3.19,3.67-3.98.28-7.99.7-11.93,1.25,0,.01-.02.01-.04.01s-.04.01-.06.01c-3.94.56-7.91,1.27-11.8,2.1-.24.06-.49.08-.73.08-1.58,0-3.01-1.1-3.36-2.72-.4-1.85.78-3.68,2.64-4.08,4.05-.88,8.18-1.61,12.29-2.2h.04s.04-.01.06-.01c4.09-.58,8.27-1.02,12.41-1.31,1.89-.12,3.54,1.3,3.67,3.2Z"/>
        <path class="cls-6" d="M116.79,17.41c-3.73,1.39-7.46,2.93-11.09,4.58-.01.01-.03.01-.04.02-.02,0-.03.02-.05.02-3.62,1.66-7.23,3.46-10.73,5.37-.53.29-1.09.42-1.65.42-1.22,0-2.4-.64-3.02-1.79-.91-1.67-.3-3.76,1.37-4.67,3.64-1.99,7.4-3.87,11.17-5.59.02,0,.03,0,.05-.02,0-.01.03-.01.05-.02,3.77-1.72,7.65-3.33,11.54-4.77,1.78-.67,3.77.24,4.43,2.02.66,1.78-.24,3.76-2.03,4.43Z"/>
        <path class="cls-6" d="M74.62,40.42c-3.19,2.38-6.33,4.92-9.35,7.52,0,.02-.03.03-.05.05-.01,0-.01.01-.02.02-3.01,2.6-5.97,5.35-8.79,8.17-.67.67-1.55,1-2.43,1s-1.76-.34-2.43-1.01c-1.35-1.34-1.34-3.52,0-4.87,2.93-2.92,6.01-5.78,9.14-8.49.02-.02.04-.04.06-.05.01-.01.01-.02.02-.02,3.14-2.72,6.41-5.35,9.73-7.83,1.52-1.14,3.67-.83,4.81.69,1.14,1.52.83,3.68-.69,4.82Z"/>
        <path class="cls-6" d="M40.63,74.34c-2.39,3.18-4.7,6.49-6.86,9.83,0,.02-.02.03-.02.04,0,.02-.02.03-.03.05-2.16,3.34-4.23,6.81-6.14,10.29-.62,1.14-1.8,1.79-3.02,1.79-.56,0-1.12-.14-1.65-.43-1.67-.91-2.28-3-1.36-4.67,1.99-3.63,4.14-7.23,6.38-10.71,0-.02.02-.03.03-.04.01-.02.02-.03.03-.05,2.25-3.48,4.65-6.92,7.14-10.23,1.14-1.52,3.3-1.83,4.81-.69,1.52,1.15,1.83,3.3.69,4.82Z"/>
        <path class="cls-6" d="M17.56,116.4c-1.4,3.72-2.68,7.55-3.81,11.37,0,.03-.02.06-.03.09-1.12,3.82-2.12,7.73-2.97,11.62-.35,1.61-1.77,2.71-3.36,2.71-.24,0-.49-.03-.73-.08-1.86-.41-3.04-2.24-2.63-4.1.88-4.05,1.92-8.12,3.09-12.09.01-.03.02-.06.03-.1,1.18-3.98,2.51-7.96,3.96-11.84.67-1.77,2.65-2.68,4.43-2.01,1.78.67,2.68,2.65,2.02,4.43Z"/>
        <path class="cls-6" d="M6.88,175.59c0,3.93.14,7.89.4,11.78.13,1.89-1.3,3.54-3.19,3.67-.08,0-.16.01-.24.01-1.8,0-3.31-1.39-3.43-3.21C.14,183.79,0,179.67,0,175.59v-.32c.01-4.16.16-8.35.46-12.47.13-1.9,1.78-3.31,3.68-3.19,1.89.14,3.32,1.79,3.18,3.68-.28,3.96-.43,8-.44,11.99v.31Z"/>
        <path class="cls-6" d="M15.34,238.72c-.39.15-.8.22-1.2.22-1.39,0-2.71-.86-3.22-2.25-1.44-3.89-2.76-7.88-3.92-11.85,0-.02,0-.03-.02-.05,0-.01,0-.03,0-.05-1.16-3.97-2.19-8.04-3.06-12.1-.4-1.86.79-3.69,2.65-4.09,1.86-.39,3.68.79,4.08,2.65.84,3.89,1.83,7.8,2.94,11.62,0,.01.01.03.01.04,0,.02,0,.04.02.05,1.11,3.82,2.37,7.65,3.76,11.39.66,1.78-.25,3.76-2.03,4.42Z"/>
        <path class="cls-6" d="M39.66,281.3c-.62.46-1.34.69-2.06.69-1.04,0-2.08-.48-2.75-1.38-2.49-3.33-4.88-6.78-7.12-10.27,0,0-.02-.02-.02-.03,0-.02-.03-.04-.04-.05-2.23-3.49-4.37-7.11-6.36-10.75-.91-1.67-.29-3.76,1.38-4.67,1.66-.91,3.75-.29,4.66,1.38,1.91,3.5,3.97,6.97,6.12,10.32,0,.01,0,.03.02.04,0,0,.02.03.03.05,2.15,3.35,4.45,6.66,6.84,9.85,1.14,1.53.82,3.68-.7,4.82Z"/>
        <path class="cls-6" d="M74.94,315.32c-.68.89-1.71,1.37-2.75,1.37-.72,0-1.45-.23-2.07-.69-3.31-2.49-6.57-5.13-9.7-7.85,0-.01-.02-.02-.02-.03-.02-.01-.04-.03-.06-.04-3.12-2.72-6.19-5.59-9.11-8.52-1.34-1.35-1.34-3.53,0-4.87,1.35-1.34,3.53-1.34,4.87.01,2.81,2.82,5.76,5.57,8.76,8.19.01.01.02.01.03.02s.03.03.05.04c3,2.62,6.14,5.15,9.32,7.55,1.52,1.14,1.82,3.3.68,4.82Z"/>
        <path class="cls-6" d="M118.31,338.03c-.51,1.38-1.83,2.23-3.22,2.23-.4,0-.81-.07-1.21-.22-3.87-1.45-7.74-3.07-11.5-4.8-.01,0-.02-.01-.03-.01-.02-.01-.05-.02-.07-.03-3.76-1.73-7.5-3.62-11.13-5.61-1.67-.92-2.28-3.01-1.36-4.68.91-1.66,3.01-2.27,4.67-1.35,3.49,1.91,7.09,3.73,10.7,5.39,0,0,.02.01.02.01.03.01.05.02.07.03,3.61,1.66,7.33,3.21,11.05,4.61,1.78.66,2.68,2.65,2.01,4.43Z"/>
        <path class="cls-6" d="M166.37,347.54c-.13,1.81-1.64,3.19-3.43,3.19-.08,0-.16,0-.25-.01-4.14-.3-8.31-.75-12.4-1.34h-.03s-.05-.01-.08-.01c-4.1-.6-8.23-1.35-12.27-2.23-1.86-.41-3.04-2.24-2.63-4.1.41-1.86,2.23-3.04,4.1-2.63,3.88.85,7.85,1.57,11.79,2.15h.03s.05.01.07.01c3.93.57,7.94,1,11.92,1.29,1.9.14,3.32,1.79,3.18,3.68Z"/>
        <path class="cls-6" d="M212.53,347.3c-4.04.86-8.18,1.6-12.28,2.17h0s-.06.01-.1.02c-4.09.57-8.27,1.01-12.41,1.29-.08,0-.16.01-.24.01-1.79,0-3.3-1.39-3.43-3.21-.13-1.9,1.31-3.54,3.2-3.67,3.98-.27,7.99-.69,11.93-1.24.03,0,.06-.01.1-.01,3.94-.56,7.92-1.26,11.8-2.09,1.86-.4,3.69.78,4.09,2.64.4,1.86-.79,3.69-2.65,4.09Z"/>
        <path class="cls-6" d="M259.42,329.93c-3.65,1.99-7.42,3.86-11.18,5.58-.02,0-.03,0-.04,0l-.06.03c-3.78,1.72-7.67,3.32-11.55,4.76-.4.14-.8.21-1.2.21-1.4,0-2.71-.86-3.22-2.25-.66-1.78.25-3.76,2.03-4.42,3.73-1.38,7.46-2.92,11.1-4.57,0,0,.02-.01.03-.01.02,0,.04-.02.06-.03,3.62-1.65,7.23-3.45,10.74-5.36,1.66-.9,3.76-.29,4.66,1.38.91,1.67.29,3.76-1.37,4.67Z"/>
        <path class="cls-6" d="M299.48,300.04c-2.93,2.92-6.01,5.77-9.15,8.49-.01,0-.02.01-.02.02-.02.01-.04.03-.06.04-3.14,2.71-6.41,5.34-9.73,7.82-.62.46-1.34.68-2.06.68-1.05,0-2.08-.48-2.76-1.38-1.13-1.52-.82-3.68.7-4.82,3.19-2.38,6.34-4.9,9.36-7.51,0,0,0-.01.02-.02.02-.01.03-.03.05-.04,3.02-2.61,5.98-5.35,8.8-8.16,1.34-1.34,3.52-1.34,4.86.01,1.34,1.35,1.34,3.53-.01,4.87Z"/>
        <path class="cls-6" d="M329.54,260.14c-2,3.62-4.15,7.23-6.4,10.7,0,.02-.03.04-.04.06,0,.01,0,.02-.02.03-2.25,3.48-4.66,6.92-7.15,10.23-.67.89-1.71,1.37-2.75,1.37-.72,0-1.45-.23-2.07-.7-1.51-1.14-1.82-3.3-.67-4.82,2.39-3.17,4.7-6.48,6.86-9.82.02-.02.03-.03.04-.05,0-.01,0-.02.02-.03,2.16-3.34,4.23-6.81,6.15-10.29.91-1.67,3.01-2.27,4.67-1.36,1.67.92,2.27,3.01,1.36,4.68Z"/>
        <path class="cls-6" d="M347.11,213.39c-.88,4.05-1.93,8.12-3.1,12.09-.01.02-.02.04-.02.06-.01.01-.01.03-.01.04-1.18,3.97-2.52,7.95-3.98,11.83-.52,1.38-1.83,2.23-3.22,2.23-.4,0-.81-.07-1.21-.22-1.78-.67-2.68-2.66-2.01-4.43,1.4-3.73,2.68-7.55,3.82-11.37,0-.02,0-.04.02-.06,0-.01,0-.02.01-.03,1.12-3.82,2.13-7.73,2.98-11.62.41-1.85,2.24-3.03,4.1-2.62,1.86.41,3.03,2.24,2.62,4.1Z"/>
        <path class="cls-6" d="M351.19,175.59v.55c0,4.15-.17,8.35-.47,12.47-.13,1.81-1.64,3.19-3.43,3.19-.09,0-.17-.01-.26-.01-1.89-.14-3.32-1.79-3.18-3.69.29-3.96.45-7.99.46-11.98v-.55c0-3.96-.14-7.99-.42-11.96-.13-1.9,1.3-3.54,3.19-3.68,1.87-.12,3.54,1.3,3.68,3.2.29,4.12.43,8.32.43,12.46Z"/>
        <path class="cls-6" d="M344.6,142.42c-.25.05-.5.08-.74.08-1.58,0-3.01-1.1-3.36-2.71-.84-3.9-1.83-7.81-2.95-11.62v-.02s-.02-.05-.03-.08c-1.11-3.82-2.38-7.64-3.78-11.38-.66-1.78.25-3.76,2.03-4.42,1.78-.67,3.76.24,4.42,2.02,1.45,3.89,2.78,7.87,3.94,11.85,0,0,0,0,0,.02,0,.02,0,.05.02.07,1.16,3.97,2.19,8.04,3.07,12.1.4,1.86-.78,3.69-2.63,4.09Z"/>
        <path class="cls-6" d="M328.41,96.15c-.53.29-1.09.42-1.65.42-1.22,0-2.4-.64-3.02-1.79-1.91-3.49-3.98-6.96-6.13-10.31,0-.01-.02-.03-.02-.04-.01-.01-.03-.03-.04-.05-2.15-3.34-4.45-6.66-6.84-9.85-1.14-1.52-.83-3.68.69-4.82,1.52-1.14,3.67-.83,4.81.7,2.49,3.32,4.89,6.76,7.13,10.25,0,.01.02.02.02.03.01.02.03.04.04.05,2.24,3.49,4.39,7.11,6.37,10.74.92,1.67.3,3.76-1.36,4.67Z"/>
        <path class="cls-6" d="M299.81,56.34c-.68.67-1.56,1.01-2.44,1.01s-1.76-.34-2.43-1.01c-2.81-2.82-5.76-5.57-8.77-8.18,0-.01-.03-.02-.04-.03-.01-.01-.03-.02-.04-.04-3.01-2.6-6.14-5.14-9.33-7.53-1.52-1.14-1.83-3.29-.68-4.82,1.14-1.51,3.3-1.82,4.81-.68,3.32,2.48,6.58,5.12,9.71,7.84,0,.01.03.02.04.03s.03.02.04.03c3.13,2.72,6.2,5.58,9.13,8.51,1.34,1.35,1.34,3.53,0,4.87Z"/>
        <path class="cls-6" d="M261.22,26.17c-.63,1.14-1.81,1.78-3.02,1.78-.56,0-1.13-.13-1.65-.42-3.5-1.91-7.1-3.72-10.71-5.38-.01,0-.03,0-.04-.02-.02-.01-.03-.01-.05-.02-3.62-1.66-7.34-3.2-11.06-4.59-1.78-.67-2.68-2.65-2.02-4.43.67-1.78,2.66-2.68,4.43-2.02,3.88,1.45,7.75,3.06,11.51,4.78.02.01.04.02.05.02.02.01.03.02.05.03,3.76,1.72,7.5,3.6,11.14,5.59,1.67.92,2.28,3.01,1.37,4.68Z"/>
        <path class="cls-6" d="M215.7,8.1c-.35,1.61-1.77,2.71-3.36,2.71-.24,0-.49-.03-.73-.08-3.89-.85-7.86-1.56-11.8-2.13h-.05s-.03-.01-.05-.01c-3.93-.56-7.94-.99-11.92-1.28-1.9-.13-3.32-1.78-3.19-3.68.14-1.89,1.81-3.31,3.68-3.18,4.14.29,8.31.74,12.4,1.33h.05s.04.01.06.01c4.1.59,8.23,1.33,12.28,2.21,1.86.41,3.03,2.24,2.63,4.1Z"/>
      </g>
      <g>
        <path class="cls-6" d="M84.58,33.51l-.16.1c-.57.35-1.19.51-1.81.51-1.15,0-2.28-.58-2.93-1.63-1-1.62-.49-3.74,1.13-4.74,1.58-1.04,3.72-.6,4.76.99,1.04,1.59.6,3.72-.99,4.77Z"/>
        <path class="cls-6" d="M48.21,64.96l-.02.02c-.68.81-1.65,1.22-2.62,1.22-.79,0-1.58-.27-2.22-.81-1.46-1.23-1.64-3.4-.41-4.85l.12-.14c1.26-1.42,3.43-1.55,4.85-.29,1.43,1.25,1.56,3.43.3,4.85Z"/>
        <path class="cls-6" d="M22.21,105.21l-.07.18c-.59,1.24-1.83,1.96-3.11,1.96-.5,0-1-.11-1.48-.33-1.72-.82-2.45-2.88-1.63-4.59.77-1.74,2.81-2.52,4.55-1.75,1.73.77,2.52,2.8,1.74,4.53Z"/>
        <path class="cls-6" d="M8.62,151.28l-.02.1c-.24,1.71-1.71,2.95-3.4,2.95-.16,0-.33-.02-.49-.04-1.88-.27-3.19-2.02-2.92-3.9l.02-.1c.27-1.88,2.01-3.19,3.9-2.91,1.88.27,3.18,2.02,2.91,3.9Z"/>
        <path class="cls-6" d="M5.63,203.28c-.17.02-.33.03-.5.03-1.68,0-3.15-1.23-3.4-2.94v-.11c-.29-1.88,1.02-3.62,2.9-3.9,1.88-.27,3.63,1.04,3.9,2.92v.1c.29,1.88-1.02,3.62-2.9,3.9Z"/>
        <path class="cls-6" d="M20.29,250.01c-.48.22-.97.32-1.46.32-1.27,0-2.49-.71-3.08-1.94l-.09-.19c-.76-1.75.04-3.77,1.78-4.54,1.74-.76,3.77.04,4.53,1.78l-3.15,1.38,3.16-1.36c.77,1.72.02,3.76-1.69,4.55Z"/>
        <path class="cls-6" d="M47.56,290.79c-.65.55-1.44.81-2.22.81-.98,0-1.95-.41-2.63-1.22-1.25-1.43-1.11-3.63.32-4.87,1.44-1.25,3.6-1.12,4.84.32l.09.11c1.23,1.45,1.05,3.62-.4,4.85Z"/>
        <path class="cls-6" d="M85.18,322.19c-.66,1.01-1.76,1.56-2.88,1.56-.65,0-1.3-.18-1.88-.57l-.09-.05c-1.59-1.04-2.03-3.18-.99-4.77,1.04-1.59,3.18-2.03,4.76-.99l.09.06c1.59,1.04,2.03,3.17.99,4.76Z"/>
        <path class="cls-6" d="M130.09,341.7c-.44,1.5-1.81,2.48-3.3,2.48-.32,0-.65-.05-.97-.14l-.13-.04c-1.81-.55-2.84-2.47-2.29-4.29.55-1.82,2.47-2.85,4.29-2.3l.07.02c1.82.54,2.87,2.45,2.33,4.27Z"/>
        <path class="cls-6" d="M178.71,347.75c0,1.9-1.54,3.44-3.44,3.44h-.1c-1.9,0-3.44-1.54-3.44-3.44s1.54-3.44,3.44-3.44h.1c1.9,0,3.44,1.54,3.44,3.44Z"/>
        <path class="cls-6" d="M224.66,344.24c-.34.1-.67.15-1,.15-1.48,0-2.84-.96-3.29-2.45-.55-1.81.49-3.74,2.31-4.29l.21-.06c1.84-.49,3.73.61,4.21,2.45.49,1.83-.61,3.72-2.44,4.2Z"/>
        <path class="cls-6" d="M270.17,323.57c-.58.38-1.23.56-1.87.56-1.12,0-2.22-.55-2.88-1.56-1.04-1.59-.58-3.73,1.01-4.77l.2-.13c1.63-.98,3.74-.45,4.72,1.18.98,1.63.45,3.74-1.18,4.72Z"/>
        <path class="cls-6" d="M308.08,290.85l-.09.1c-.68.76-1.63,1.16-2.58,1.16-.81,0-1.62-.29-2.28-.87-1.42-1.26-1.55-3.43-.29-4.85l.04-.06c1.25-1.43,3.42-1.58,4.86-.34,1.43,1.25,1.59,3.42.34,4.86Z"/>
        <path class="cls-6" d="M335.22,248.87l-.08.18c-.59,1.23-1.83,1.96-3.11,1.96-.5,0-1-.11-1.48-.34-1.71-.81-2.44-2.87-1.63-4.58l3.11,1.48-3.09-1.51c.79-1.71,2.83-2.48,4.55-1.7,1.72.78,2.5,2.79,1.73,4.51Z"/>
        <path class="cls-6" d="M349.37,201.01l-.02.1c-.25,1.71-1.72,2.95-3.4,2.95-.16,0-.33-.01-.5-.04-1.88-.27-3.18-2.02-2.91-3.9l.02-.1c.27-1.88,2.01-3.19,3.89-2.91,1.89.27,3.19,2.02,2.92,3.9Z"/>
        <path class="cls-6" d="M346.53,154.61c-.17.02-.33.03-.5.03-1.68,0-3.15-1.23-3.4-2.94v-.11c-.29-1.88,1.02-3.62,2.9-3.89,1.87-.28,3.62,1.03,3.9,2.91v.1c.29,1.88-1.02,3.63-2.9,3.9Z"/>
        <path class="cls-6" d="M333.74,107.27c-.48.23-.98.33-1.47.33-1.29,0-2.52-.72-3.1-1.97l-.07-.15c-.78-1.74,0-3.77,1.74-4.54,1.74-.78,3.77.01,4.55,1.74.8,1.72.07,3.79-1.65,4.59Z"/>
        <path class="cls-6" d="M308.02,65.52c-.66.57-1.47.85-2.27.85-.95,0-1.9-.4-2.57-1.18l-.09-.11c-1.23-1.45-1.05-3.62.4-4.85,1.45-1.22,3.62-1.04,4.85.41,1.25,1.43,1.11,3.63-.32,4.88Z"/>
        <path class="cls-6" d="M271.67,32.71c-.66,1-1.76,1.55-2.88,1.55-.65,0-1.3-.18-1.88-.56l1.88-2.88-1.91,2.86c-1.58-1.02-2.07-3.14-1.07-4.74,1.01-1.59,3.1-2.09,4.7-1.1l.17.1c1.59,1.04,2.03,3.18.99,4.77Z"/>
        <path class="cls-6" d="M227.58,11.42c-.45,1.49-1.81,2.44-3.29,2.44-.33,0-.66-.04-1-.15l1-3.29-1.03,3.29c-1.82-.54-2.88-2.44-2.36-4.26.52-1.82,2.4-2.88,4.22-2.37l.17.05c1.82.55,2.85,2.47,2.29,4.29Z"/>
        <path class="cls-6" d="M179.25,3.44c0,1.9-1.54,3.44-3.44,3.44h-.11c-1.9,0-3.44-1.54-3.44-3.44S173.8,0,175.7,0h.11c1.9,0,3.44,1.54,3.44,3.44Z"/>
        <path class="cls-6" d="M128.26,13.61l-.95-3.31.93,3.31s-.09.03-.11.04c-.31.08-.62.12-.92.12-1.51,0-2.89-.99-3.32-2.51-.51-1.83.56-3.73,2.39-4.24,1.82-.51,3.77.53,4.29,2.36.52,1.82-.49,3.71-2.31,4.23Z"/>
      </g>
    </g>
    <g>
      <rect class="cls-3" x="171.01" y="138.8" width="13.6" height="151.44" rx="6.58" ry="6.58"/>
      <rect class="cls-3" x="171.01" y="205.23" width="13.6" height="22.01" rx="6.8" ry="6.8" transform="translate(394.04 38.42) rotate(90)"/>
      <path class="cls-3" d="M188.82,141.44c0,1.88-.76,3.58-1.99,4.81-1.23,1.23-2.93,1.99-4.81,1.99h-8.41c-3.76,0-6.8-3.05-6.8-6.8,0-1.45.45-2.79,1.23-3.9,3.18.83,6.47,1.26,9.78,1.26s6.6-.43,9.78-1.26c.78,1.1,1.23,2.45,1.23,3.9Z"/>
      <rect class="cls-3" x="171.01" y="143.13" width="13.6" height="22.01" rx="6.8" ry="6.8" transform="translate(331.95 -23.67) rotate(90)"/>
      <polygon class="cls-3" points="171.01 224.21 171.01 281.83 155.8 281.83 155.8 273.42 150.61 273.42 150.61 281.83 135.4 281.83 135.4 255.36 162.6 255.36 162.6 250.16 135.4 250.16 135.4 224.21 150.61 224.21 150.61 232.62 155.8 232.62 155.8 224.21 171.01 224.21"/>
      <path class="cls-3" d="M206.58,77.12c-5.74-9.94-16.48-16.61-28.77-16.61-.11,0-.22,0-.33,0,0,0,0,0,0,0s0,0,0,0c-12.03.12-22.53,6.63-28.25,16.31-.06.09-.11.19-.17.29-.11.19-.22.39-.33.59-2.62,4.74-4.12,10.2-4.12,16.02s1.5,11.27,4.12,16.02c.11.2.22.4.33.59l12.3,7.1v11.78c4.86,2.78,10.48,4.37,16.48,4.37s11.61-1.59,16.47-4.37v-11.78l12.3-7.1c2.83-4.88,4.45-10.56,4.45-16.61s-1.62-11.73-4.45-16.61ZM160.67,110.79c-6.06,0-10.97-4.91-10.97-10.97s4.91-10.96,10.97-10.96,10.96,4.91,10.96,10.96-4.9,10.97-10.96,10.97ZM180.18,113.74h-4.73c-2.45,0-3.98-2.65-2.76-4.77l2.36-4.1c.61-1.06,1.68-1.59,2.75-1.59s2.15.53,2.76,1.59l2.36,4.1c1.22,2.12-.3,4.77-2.75,4.77ZM194.95,110.79c-6.05,0-10.96-4.91-10.96-10.97s4.91-10.96,10.96-10.96,10.97,4.91,10.97,10.96-4.9,10.97-10.97,10.97Z"/>
      <text class="cls-2" transform="translate(64.56 104.34) rotate(-54.09)"><tspan x="0" y="0">L</tspan></text>
      <text class="cls-2" transform="translate(75.9 88.85) rotate(-44.36)"><tspan x="0" y="0">A</tspan></text>
      <text class="cls-2" transform="translate(95.68 70.86) rotate(-36.45)"><tspan x="0" y="0"> </tspan></text>
      <text class="cls-2" transform="translate(103.45 64.84) rotate(-28.39)"><tspan x="0" y="0">C</tspan></text>
      <text class="cls-2" transform="translate(125.91 53.02) rotate(-17.06)"><tspan x="0" y="0">O</tspan></text>
      <text class="cls-2" transform="translate(151.73 45.36) rotate(-4.59)"><tspan x="0" y="0">M</tspan></text>
      <text class="cls-2" transform="translate(182.68 43.77) rotate(6.87)"><tspan x="0" y="0">P</tspan></text>
      <text class="cls-2" transform="translate(202.05 46.09) rotate(16.13)"><tspan x="0" y="0">A</tspan></text>
      <text class="cls-2" transform="translate(225.1 52.9) rotate(27.25)"><tspan x="0" y="0">G</tspan></text>
      <text class="cls-2" transform="translate(250.31 66.66) rotate(38.76)"><tspan x="0" y="0">N</tspan></text>
      <text class="cls-2" transform="translate(269.4 83.05) rotate(46.99)"><tspan x="0" y="0">I</tspan></text>
      <text class="cls-2" transform="translate(278.15 92.6) rotate(54.15)"><tspan x="0" y="0">E</tspan></text>
      <text class="cls-2" transform="translate(56.53 272.17) rotate(47.63)"><tspan x="0" y="0">B</tspan></text>
      <text class="cls-2" transform="translate(73.93 290.35) rotate(38.25)"><tspan x="0" y="0">R</tspan></text>
      <text class="cls-2" transform="translate(94.27 305.32) rotate(30.75)"><tspan x="0" y="0">I</tspan></text>
      <text class="cls-2" transform="translate(107.64 313.13) rotate(22.63)"><tspan x="0" y="0">N</tspan></text>
      <text class="cls-2" transform="translate(133.54 322.81) rotate(15.1)"><tspan x="0" y="0"> </tspan></text>
      <text class="cls-2" transform="translate(145.41 326) rotate(7.53)"><tspan x="0" y="0">D</tspan></text>
      <text class="cls-2" transform="translate(173.15 328.8) rotate(-1.79)"><tspan x="0" y="0">E</tspan></text>
      <text class="cls-2" transform="translate(195.39 327.39) rotate(-8.17)"><tspan x="0" y="0"> </tspan></text>
      <text class="cls-2" transform="translate(207.27 325.53) rotate(-14.54)"><tspan x="0" y="0">F</tspan></text>
      <text class="cls-2" transform="translate(227.74 320) rotate(-24.19)"><tspan x="0" y="0">O</tspan></text>
      <text class="cls-2" transform="translate(256.05 306.03) rotate(-34.45)"><tspan x="0" y="0">L</tspan></text>
      <text class="cls-2" transform="translate(273.49 293.31) rotate(-41.16)"><tspan x="0" y="0">I</tspan></text>
      <text class="cls-2" transform="translate(284.77 283.11) rotate(-48.16)"><tspan x="0" y="0">E</tspan></text>
      <text class="cls-1" transform="translate(24.42 182.97)"><tspan class="cls-7" x="0" y="0">2</tspan><tspan x="10.92" y="0">2</tspan></text>
      <text class="cls-1" transform="translate(304.49 182.97)"><tspan class="cls-8" x="0" y="0">2</tspan><tspan x="10.59" y="0">6</tspan></text>
      <path class="cls-5" d="M149.7,126.92c-42.99,32.57-63.6-3.6-46.58,0,15.15,3.21,31.49,50.11,61.78,60.47"/>
      <path class="cls-5" d="M192.68,198.18c62.61,25.29,80.69-8.17,63.63-7.64-23.84.75-23.92,47.8-64.07,63.06"/>
    </g>
  </g>
</svg>