<?xml version="1.0" encoding="UTF-8"?>
<svg id="Calque_2" data-name="Calque 2" xmlns="http://www.w3.org/2000/svg" viewBox="0 0 502.2 293.22">
  <defs>
    <style>
      .cls-1 {
        fill: #4fe8cb;
      }
    </style>
  </defs>
  <g id="Layer_4" data-name="Layer 4">
    <g>
      <g>
        <path class="cls-1" d="M72.17,56.77c10.81,5.15,16.21,14.11,16.21,26.88,0,5.26-.98,10.27-2.94,15.03-1.96,4.76-4.59,8.51-7.89,11.25-5.26,4.59-10.43,7.49-15.5,8.69-5.07,1.2-12.75,1.81-23.05,1.81H1.88c-1.01,0-1.54-.5-1.6-1.51V1.43C.28.53.81.06,1.88,0h41.74c13.21,0,23.21,2.72,29.98,8.15,7.11,5.38,10.67,13.27,10.67,23.68,0,8.73-4.14,16.21-12.43,22.42-.45.34-.64.78-.59,1.34.06.56.36.95.92,1.18ZM29.17,28.97v17.72c0,1.01.53,1.51,1.6,1.51h9.41c3.92,0,6.97-.45,9.15-1.34,4.25-1.62,6.38-4.79,6.38-9.49,0-4.37-2.02-7.31-6.05-8.82-2.07-.78-5.24-1.18-9.49-1.18h-9.41c-1.06.06-1.6.59-1.6,1.6ZM52.94,91.71c4.37-1.73,6.55-5.07,6.55-9.99,0-4.37-2.07-7.33-6.21-8.9-2.07-.78-5.24-1.2-9.49-1.26h-13.19c-.9,0-1.37.53-1.43,1.6v18.39c0,1.01.48,1.51,1.43,1.51h13.19c3.92,0,6.97-.45,9.15-1.34Z"/>
        <path class="cls-1" d="M142.21,28.97c1.01,0,1.51.5,1.51,1.51l-.84,21.33c-.11,1.01-.7,1.46-1.76,1.34-4.7-.45-8.12-.39-10.25.17-2.74.67-4.65,2.18-5.71,4.54-1.01,2.07-1.51,5.21-1.51,9.41v51.48c0,.9-.48,1.34-1.43,1.34h-27.38c-.9,0-1.34-.45-1.34-1.34V30.32c0-.9.45-1.34,1.34-1.34h25.7c.9,0,1.34.45,1.34,1.34v2.6c0,.34.11.56.34.67.22.11.45.11.67,0,4.87-2.97,11.31-4.51,19.32-4.62Z"/>
        <path class="cls-1" d="M173.96.25c.9,0,1.34.45,1.34,1.34v18.73c0,.9-.45,1.37-1.34,1.43h-25.7c-.9,0-1.34-.48-1.34-1.43V1.6c0-.9.45-1.34,1.34-1.34h25.7ZM173.96,28.97c.9,0,1.34.45,1.34,1.34v88.44c0,.9-.45,1.34-1.34,1.34h-25.7c-.9,0-1.34-.45-1.34-1.34V30.32c0-.9.45-1.34,1.34-1.34h25.7Z"/>
        <path class="cls-1" d="M255.59,37.04c4.48,4.37,7.43,8.72,8.86,13.06,1.43,4.34,2.14,10.06,2.14,17.17v51.48c0,.9-.5,1.34-1.51,1.34h-27.21c-.9,0-1.34-.45-1.34-1.34v-49.89c0-4.59-.59-8.09-1.76-10.5-.67-1.4-1.51-2.49-2.52-3.28-1.62-1.29-3.86-1.93-6.72-1.93-5.6,0-9.1,1.57-10.5,4.7-1.01,2.07-1.51,5.74-1.51,11v49.89c0,.9-.48,1.34-1.43,1.34h-27.38c-.9,0-1.34-.45-1.34-1.34V30.32c0-.9.45-1.34,1.34-1.34h25.7c.9,0,1.34.45,1.34,1.34v2.6c0,.22.14.42.42.59.28.17.53.14.76-.08,3.81-2.63,7.82-4.35,12.05-5.17,4.23-.81,7.89-.97,11-.46s6.16,1.4,9.15,2.69c2.99,1.29,5.02,2.3,6.09,3.02,1.06.73,1.85,1.26,2.35,1.6.78.62,1.46,1.26,2.02,1.93Z"/>
        <path class="cls-1" d="M394.67.25c1.01,0,1.54.45,1.6,1.34v116.99c0,1.01-.53,1.51-1.6,1.51h-25.45c-1.01,0-1.51-.5-1.51-1.51v-1.43c0-.22-.13-.39-.38-.5-.25-.11-.49-.11-.71,0-7.45,4.14-15.45,6.21-24.02,6.21-13.33,0-24.72-4.65-34.18-13.94-9.46-9.29-14.19-20.53-14.19-33.72s4.73-24.45,14.19-33.8c9.46-9.35,20.86-14.03,34.18-14.03,8.62,0,16.63,2.13,24.02,6.38.22.11.46.11.71,0,.25-.11.38-.34.38-.67V1.6c0-.9.5-1.34,1.51-1.34h25.45ZM347.05,97.09c5.93,0,10.86-2.13,14.78-6.38,3.92-4.25,5.88-9.45,5.88-15.58s-1.96-11.3-5.88-15.5c-3.92-4.2-8.85-6.3-14.78-6.3s-11.46,2.13-15.75,6.38c-4.28,4.26-6.42,9.39-6.42,15.41s2.14,11.18,6.42,15.5c4.28,4.31,9.53,6.47,15.75,6.47Z"/>
        <path class="cls-1" d="M495.62,61.81c1.4,4.37,2.07,8.82,2.02,13.35,0,2.63-.28,5.46-.84,8.48-.11.78-.56,1.18-1.34,1.18h-63.83c-.56,0-1,.27-1.3.8-.31.53-.35,1.02-.13,1.47,2.07,3.3,4.77,5.94,8.1,7.89,3.33,1.96,6.9,2.94,10.71,2.94,7,0,12.71-2.83,17.13-8.48.34-.56.81-.78,1.43-.67l24.44,4.54c.45.11.78.36,1.01.76.22.39.22.81,0,1.26-.67,1.62-1.21,2.72-1.6,3.28l-.34.67c-.45.56-.9,1.2-1.34,1.93-.45.9-.95,1.68-1.51,2.35l-.42.34c-.22.22-.39.48-.5.76l-.17.34c-.34.34-.67.73-1.01,1.18l-.34.34-1.76,1.76-.34.34c-.34.45-.67.84-1.01,1.18h-.17c-.45.45-.9.84-1.34,1.18l-.34.59-.76-.59.5.59c-.67.56-1.29,1.06-1.85,1.51l-.5.5c-.79.45-1.6.98-2.44,1.6l-.17.17c-.9.56-1.82,1.06-2.77,1.51l-.34.17c-.22.11-.39.22-.5.34l-.17.17c-.45.11-.84.28-1.18.5l-.34.17c-.79.34-1.6.7-2.44,1.09l-.17.17c-.56.22-1.09.39-1.6.5l-.5.17c-.67.22-1.29.45-1.85.67-.67.22-1.43.39-2.27.5l-.5.17c-1.4.34-2.77.64-4.11.92l-.5.17c-1.51.11-2.97.22-4.37.34h-.67c-.79.11-1.51.17-2.18.17s-1.43-.06-2.27-.17h-.5c-.56,0-1.15-.06-1.76-.17h-.67c-.79-.11-1.46-.22-2.02-.34h-.5c-.56-.11-1.15-.22-1.76-.34l-.67-.25c-.45-.11-.98-.22-1.6-.34h-.17c-.11,0-.22-.06-.34-.17-.79-.11-1.46-.28-2.02-.5-.56-.11-1.26-.34-2.1-.67-.22,0-.39-.06-.5-.17-.56-.22-1.06-.39-1.51-.5l-.25-.17c-.11,0-.22-.06-.34-.17-.67-.22-1.34-.53-2.02-.92-.45-.22-1.09-.5-1.93-.84,0-.11-.11-.22-.34-.34h-.17c-.45-.22-.9-.45-1.34-.67l-.5-.34c-.56-.45-1.15-.84-1.76-1.18-5.82-3.92-10.58-8.87-14.28-14.87-.34-.45-.62-.95-.84-1.51l-.17-.17c-.22-.34-.5-.87-.84-1.6v-.17c-.11-.11-.22-.28-.34-.5-.9-1.85-1.71-3.78-2.44-5.79-.34-1.12-.62-2.15-.84-3.11-.22-.67-.42-1.43-.59-2.27-.56-2.41-.9-4.81-1.01-7.22v-4.79c.22-4.25,1.04-8.45,2.44-12.6.45-1.29.89-2.49,1.34-3.61.22-.56.5-1.18.84-1.85.11-.11.2-.28.25-.5l.34-.34c0-.11.05-.25.17-.42,0-.22.05-.39.17-.5l.5-.67c.34-.67.67-1.29,1.01-1.85,3.7-5.93,8.45-10.89,14.28-14.87.56-.34,1.15-.73,1.76-1.18l.5-.17c.45-.34.89-.62,1.34-.84h.17l.17-.08c.11-.06.22-.14.34-.25.67-.34,1.26-.64,1.76-.92.67-.34,1.34-.62,2.02-.84l.17-.08.17-.08.25-.17c.45-.11.95-.28,1.51-.5.22-.11.39-.17.5-.17.78-.22,1.47-.45,2.06-.67.59-.22,1.27-.39,2.06-.5,0-.11.05-.17.17-.17h.34c.45-.11.98-.25,1.6-.42l.5-.17c.67-.11,1.43-.22,2.27-.34h.17c.56-.11,1.23-.22,2.02-.34h.67c.56-.11,1.15-.17,1.76-.17h5.46c1.51.11,3.02.28,4.54.5h.5c1.4.22,2.77.53,4.11.92l.5.17c.78.11,1.54.28,2.27.5.56.22,1.18.45,1.85.67.11,0,.28.06.5.17.45.22.98.39,1.6.5l.17.17c.78.34,1.6.67,2.44,1.01l.34.25c.22.11.56.28,1.01.5l.17.17-.34.67.5-.67c.22.11.39.22.5.34,1.01.56,2.04,1.12,3.11,1.68v.17c.78.45,1.6.98,2.44,1.6l.17.17c.11.11.28.22.5.34.56.45,1.18.95,1.85,1.51l.42.34c.56.45,1.06.92,1.51,1.43h.17c.34.45.67.84,1.01,1.18l.34.34c.56.56,1.15,1.15,1.76,1.76l-.5.5.5-.34.34.17c.22.34.5.73.84,1.18l.34.34c.45.45.81.92,1.09,1.43l.17.17c.22.34.5.73.84,1.18l.5.67c.22.45.45.81.67,1.09l.84,1.51c1.79,3.25,3.19,6.58,4.2,9.99ZM467.74,64.92c.45,0,.81-.18,1.09-.55.28-.36.36-.77.25-1.22-.56-3.41-2.62-6.27-6.17-8.57-3.56-2.29-7.74-3.44-12.56-3.44s-8.72,1.15-12.39,3.44c-3.67,2.3-5.78,5.15-6.34,8.57-.11.34-.03.71.25,1.13.28.42.64.63,1.09.63h34.77Z"/>
        <path class="cls-1" d="M88.06,131.57l2.67,32.84c.15.59.04,1.08-.33,1.45s-.85.56-1.45.56h-46.31c-1.34,0-2,.71-2,2.12v19.82c0,1.34.67,2,2,2h33.96c1.34,0,2.04.71,2.12,2.12l-.22,32.62c0,1.34-.71,2-2.12,2h-33.73c-1.34,0-2,.67-2,2v58.45c0,1.19-.63,1.78-1.89,1.78H2.12c-1.34,0-2.04-.59-2.12-1.78v-155.75c0-1.34.7-2.04,2.12-2.12h83.83c1.26.07,1.97.71,2.12,1.89Z"/>
        <path class="cls-1" d="M350.13,252.36c.59,0,1.08.21,1.45.61.37.41.48.91.33,1.5l-3.45,33.06c-.15,1.04-.74,1.56-1.78,1.56h-86.84c-1.19,0-1.82-.59-1.89-1.78v-155.97c0-1.34.63-2.04,1.89-2.12h36.85c1.19,0,1.82.71,1.89,2.12v119.01c0,1.34.67,2,2,2h49.54Z"/>
        <path class="cls-1" d="M394.21,129.45c1.34,0,2.04.71,2.12,2.12v155.75c0,1.19-.71,1.78-2.12,1.78h-36.4c-1.34,0-2.04-.59-2.12-1.78v-155.75c0-1.34.7-2.04,2.12-2.12h36.4Z"/>
        <path class="cls-1" d="M500.2,252.8c.59,0,1.08.21,1.45.61.37.41.56.91.56,1.5l-3.45,32.84c0,1.19-.59,1.78-1.78,1.78h-86.83c-1.49,0-2.26-.74-2.34-2.23v-155.3c0-1.34.7-2.04,2.12-2.12h87.06c1.19,0,1.78.63,1.78,1.89l3.45,32.62c0,.59-.19,1.11-.56,1.56s-.93.67-1.67.67h-49.54c-1.34,0-2,.71-2,2.12v19.37c0,1.34.67,2,2,2h36.07c1.34,0,2,.63,2,1.89v32.73c0,1.34-.67,2.04-2,2.12h-36.07c-1.34,0-2,.59-2,1.78v22.15c0,1.34.67,2,2,2h49.76Z"/>
      </g>
      <path d="M235.89,163.32c-13.2-22.86-37.89-38.21-66.17-38.21-.25,0-.5,0-.75.01,0,0-.01-.01-.02-.01s-.01.01-.02.01c-27.67.28-51.81,15.25-64.99,37.52-.13.21-.26.44-.39.67-.26.44-.52.9-.76,1.36-6.03,10.91-9.48,23.47-9.48,36.85s3.44,25.93,9.48,36.84c.25.46.5.92.76,1.36l28.28,16.34v27.09c11.18,6.4,24.11,10.06,37.89,10.06s26.71-3.66,37.88-10.06v-27.09l28.28-16.34c6.52-11.23,10.24-24.28,10.24-38.2s-3.72-26.98-10.24-38.21ZM130.3,240.76c-13.93,0-25.22-11.29-25.22-25.22s11.29-25.21,25.22-25.21,25.21,11.29,25.21,25.21-11.27,25.22-25.21,25.22ZM175.16,247.55h-10.88c-5.64,0-9.16-6.1-6.35-10.97l5.44-9.43c1.4-2.44,3.87-3.66,6.34-3.66s4.93,1.21,6.35,3.66l5.44,9.43c2.81,4.87-.7,10.97-6.34,10.97ZM209.13,240.76c-13.92,0-25.21-11.29-25.21-25.22s11.29-25.21,25.21-25.21,25.22,11.29,25.22,25.21-11.28,25.22-25.22,25.22Z"/>
    </g>
  </g>
</svg>