<?xml version="1.0" encoding="UTF-8"?>
<svg id="Calque_2" data-name="Calque 2" xmlns="http://www.w3.org/2000/svg" viewBox="0 0 195.35 163.73">
  <defs>
    <style>
      .cls-1 {
        fill: #fff;
      }

      .cls-2 {
        fill: #ff0073;
      }
    </style>
  </defs>
  <g id="Layer_4" data-name="Layer 4">
    <path d="M24.6,0h170.74v163.73H0V24.6C0,11.02,11.02,0,24.6,0Z"/>
  </g>
  <g id="Layer_5" data-name="Layer 5">
    <g>
      <g>
        <path class="cls-1" d="M42.24,53.51c3.51,1.67,5.27,4.58,5.27,8.73,0,1.71-.32,3.34-.96,4.88-.64,1.55-1.49,2.77-2.57,3.66-1.71,1.49-3.39,2.43-5.03,2.82-1.65.39-4.14.59-7.49.59h-12.06c-.33,0-.5-.16-.52-.49v-38.18c0-.29.17-.45.52-.46h13.56c4.29,0,7.54.88,9.74,2.65,2.31,1.75,3.47,4.31,3.47,7.7,0,2.84-1.35,5.27-4.04,7.29-.15.11-.21.25-.19.44.02.18.12.31.3.38ZM28.27,44.48v5.76c0,.33.17.49.52.49h3.06c1.27,0,2.26-.15,2.97-.44,1.38-.53,2.07-1.56,2.07-3.08,0-1.42-.65-2.37-1.96-2.87-.67-.25-1.7-.38-3.08-.38h-3.06c-.35.02-.52.19-.52.52ZM35.99,64.86c1.42-.56,2.13-1.65,2.13-3.25,0-1.42-.67-2.38-2.02-2.89-.67-.25-1.7-.39-3.08-.41h-4.28c-.29,0-.45.17-.46.52v5.98c0,.33.15.49.46.49h4.28c1.27,0,2.26-.15,2.97-.44Z"/>
        <path class="cls-1" d="M65,44.48c.33,0,.49.16.49.49l-.27,6.93c-.04.33-.23.47-.57.44-1.53-.15-2.64-.13-3.33.05-.89.22-1.51.71-1.86,1.47-.33.67-.49,1.69-.49,3.06v16.73c0,.29-.15.44-.46.44h-8.9c-.29,0-.44-.15-.44-.44v-28.73c0-.29.15-.44.44-.44h8.35c.29,0,.44.15.44.44v.85c0,.11.04.18.11.22.07.04.15.04.22,0,1.58-.96,3.67-1.46,6.28-1.5Z"/>
        <path class="cls-1" d="M75.31,35.14c.29,0,.44.15.44.44v6.09c0,.29-.15.45-.44.46h-8.35c-.29,0-.44-.15-.44-.46v-6.09c0-.29.15-.44.44-.44h8.35ZM75.31,44.48c.29,0,.44.15.44.44v28.73c0,.29-.15.44-.44.44h-8.35c-.29,0-.44-.15-.44-.44v-28.73c0-.29.15-.44.44-.44h8.35Z"/>
        <path class="cls-1" d="M101.83,47.1c1.46,1.42,2.41,2.83,2.88,4.24.46,1.41.7,3.27.7,5.58v16.73c0,.29-.16.44-.49.44h-8.84c-.29,0-.44-.15-.44-.44v-16.21c0-1.49-.19-2.63-.57-3.41-.22-.45-.49-.81-.82-1.06-.53-.42-1.26-.63-2.18-.63-1.82,0-2.96.51-3.41,1.53-.33.67-.49,1.86-.49,3.57v16.21c0,.29-.15.44-.46.44h-8.9c-.29,0-.44-.15-.44-.44v-28.73c0-.29.15-.44.44-.44h8.35c.29,0,.44.15.44.44v.85c0,.07.05.14.14.19.09.05.17.05.25-.03,1.24-.85,2.54-1.41,3.92-1.68,1.37-.26,2.57-.31,3.57-.15s2,.46,2.97.87c.97.42,1.63.75,1.98.98.35.24.6.41.76.52.25.2.47.41.65.63Z"/>
        <path class="cls-1" d="M147.02,35.14c.33,0,.5.15.52.44v38.01c0,.33-.17.49-.52.49h-8.27c-.33,0-.49-.16-.49-.49v-.46c0-.07-.04-.13-.12-.16-.08-.04-.16-.04-.23,0-2.42,1.35-5.02,2.02-7.8,2.02-4.33,0-8.03-1.51-11.11-4.53-3.07-3.02-4.61-6.67-4.61-10.96s1.54-7.95,4.61-10.98c3.07-3.04,6.78-4.56,11.11-4.56,2.8,0,5.4.69,7.8,2.07.07.04.15.04.23,0,.08-.04.12-.11.12-.22v-10.23c0-.29.16-.44.49-.44h8.27ZM131.55,66.61c1.93,0,3.53-.69,4.8-2.07,1.27-1.38,1.91-3.07,1.91-5.06s-.64-3.67-1.91-5.03c-1.27-1.36-2.87-2.05-4.8-2.05s-3.72.69-5.12,2.07c-1.39,1.38-2.09,3.05-2.09,5.01s.7,3.63,2.09,5.03c1.39,1.4,3.1,2.1,5.12,2.1Z"/>
        <path class="cls-1" d="M179.82,55.15c.45,1.42.67,2.87.65,4.34,0,.86-.09,1.77-.27,2.76-.04.25-.18.38-.44.38h-20.74c-.18,0-.32.09-.42.26-.1.17-.11.33-.04.48.67,1.07,1.55,1.93,2.63,2.57,1.08.64,2.24.96,3.48.96,2.27,0,4.13-.92,5.57-2.76.11-.18.26-.25.46-.22l7.94,1.47c.15.04.25.12.33.25.07.13.07.26,0,.41-.22.53-.39.88-.52,1.06l-.11.22c-.15.18-.29.39-.44.63-.15.29-.31.55-.49.76l-.14.11c-.07.07-.13.15-.16.25l-.05.11c-.11.11-.22.24-.33.38l-.11.11-.57.57-.11.11c-.11.15-.22.27-.33.38h-.05c-.15.15-.29.27-.44.38l-.11.19-.25-.19.16.19c-.22.18-.42.35-.6.49l-.16.16c-.26.15-.52.32-.79.52l-.05.05c-.29.18-.59.35-.9.49l-.11.05c-.07.04-.13.07-.16.11l-.05.05c-.15.04-.27.09-.38.16l-.11.05c-.26.11-.52.23-.79.35l-.05.05c-.18.07-.35.13-.52.16l-.16.05c-.22.07-.42.15-.6.22-.22.07-.46.13-.74.16l-.16.05c-.45.11-.9.21-1.34.3l-.16.05c-.49.04-.96.07-1.42.11h-.22c-.26.04-.49.05-.71.05s-.46-.02-.74-.05h-.16c-.18,0-.37-.02-.57-.05h-.22c-.26-.04-.47-.07-.65-.11h-.16c-.18-.04-.37-.07-.57-.11l-.22-.08c-.15-.04-.32-.07-.52-.11h-.05s-.07-.02-.11-.05c-.26-.04-.47-.09-.65-.16-.18-.04-.41-.11-.68-.22-.07,0-.13-.02-.16-.05-.18-.07-.35-.13-.49-.16l-.08-.05s-.07-.02-.11-.05c-.22-.07-.44-.17-.65-.3-.15-.07-.35-.16-.63-.27,0-.04-.04-.07-.11-.11h-.05c-.15-.07-.29-.15-.44-.22l-.16-.11c-.18-.15-.37-.27-.57-.38-1.89-1.27-3.44-2.88-4.64-4.83-.11-.15-.2-.31-.27-.49l-.05-.05c-.07-.11-.16-.28-.27-.52v-.05s-.07-.09-.11-.16c-.29-.6-.56-1.23-.79-1.88-.11-.36-.2-.7-.27-1.01-.07-.22-.14-.46-.19-.74-.18-.78-.29-1.56-.33-2.35v-1.56c.07-1.38.34-2.75.79-4.09.15-.42.29-.81.44-1.17.07-.18.16-.38.27-.6.04-.04.06-.09.08-.16l.11-.11s.02-.08.05-.14c0-.07.02-.13.05-.16l.16-.22c.11-.22.22-.42.33-.6,1.2-1.93,2.75-3.54,4.64-4.83.18-.11.37-.24.57-.38l.16-.05c.15-.11.29-.2.44-.27h.05l.05-.03s.07-.05.11-.08c.22-.11.41-.21.57-.3.22-.11.44-.2.65-.27l.05-.03.05-.03.08-.05c.15-.04.31-.09.49-.16.07-.04.13-.05.16-.05.25-.07.48-.15.67-.22.19-.07.41-.13.67-.16,0-.04.02-.05.05-.05h.11c.15-.04.32-.08.52-.14l.16-.05c.22-.04.46-.07.74-.11h.05c.18-.04.4-.07.65-.11h.22c.18-.04.37-.05.57-.05h1.77c.49.04.98.09,1.47.16h.16c.45.07.9.17,1.34.3l.16.05c.25.04.5.09.74.16.18.07.38.15.6.22.04,0,.09.02.16.05.15.07.32.13.52.16l.05.05c.25.11.52.22.79.33l.11.08c.07.04.18.09.33.16l.05.05-.11.22.16-.22c.07.04.13.07.16.11.33.18.66.36,1.01.55v.05c.25.15.52.32.79.52l.05.05s.09.07.16.11c.18.15.38.31.6.49l.14.11c.18.15.35.3.49.46h.05c.11.15.22.27.33.38l.11.11c.18.18.37.37.57.57l-.16.16.16-.11.11.05c.07.11.16.24.27.38l.11.11c.15.15.26.3.35.46l.05.05c.07.11.16.24.27.38l.16.22c.07.15.15.26.22.35l.27.49c.58,1.06,1.04,2.14,1.36,3.25ZM170.76,56.16c.15,0,.26-.06.35-.18.09-.12.12-.25.08-.4-.18-1.11-.85-2.04-2.01-2.78-1.16-.75-2.52-1.12-4.08-1.12s-2.83.37-4.02,1.12c-1.19.75-1.88,1.67-2.06,2.78-.04.11,0,.23.08.37.09.14.21.2.35.2h11.3Z"/>
        <path class="cls-1" d="M47.4,77.81l.87,10.67c.05.19.01.35-.11.47s-.28.18-.47.18h-15.05c-.43,0-.65.23-.65.69v6.44c0,.43.22.65.65.65h11.03c.43,0,.66.23.69.69l-.07,10.6c0,.43-.23.65-.69.65h-10.96c-.43,0-.65.22-.65.65v18.99c0,.39-.21.58-.61.58h-11.9c-.43,0-.66-.19-.69-.58v-50.6c0-.43.23-.66.69-.69h27.24c.41.02.64.23.69.61Z"/>
        <path class="cls-1" d="M132.55,117.06c.19,0,.35.07.47.2.12.13.16.3.11.49l-1.12,10.74c-.05.34-.24.51-.58.51h-28.21c-.39,0-.59-.19-.61-.58v-50.68c0-.43.2-.66.61-.69h11.97c.39,0,.59.23.61.69v38.67c0,.43.22.65.65.65h16.1Z"/>
        <path class="cls-1" d="M146.87,77.12c.43,0,.66.23.69.69v50.6c0,.39-.23.58-.69.58h-11.83c-.43,0-.66-.19-.69-.58v-50.6c0-.43.23-.66.69-.69h11.83Z"/>
        <path class="cls-1" d="M181.31,117.2c.19,0,.35.07.47.2.12.13.18.3.18.49l-1.12,10.67c0,.39-.19.58-.58.58h-28.21c-.48,0-.74-.24-.76-.72v-50.46c0-.43.23-.66.69-.69h28.29c.39,0,.58.21.58.61l1.12,10.6c0,.19-.06.36-.18.51s-.3.22-.54.22h-16.1c-.43,0-.65.23-.65.69v6.29c0,.43.22.65.65.65h11.72c.43,0,.65.21.65.61v10.63c0,.43-.22.66-.65.69h-11.72c-.43,0-.65.19-.65.58v7.2c0,.43.22.65.65.65h16.17Z"/>
      </g>
      <path class="cls-2" d="M95.43,88.13c-4.29-7.43-12.31-12.41-21.5-12.41-.08,0-.16,0-.24,0,0,0,0,0,0,0s0,0,0,0c-8.99.09-16.83,4.96-21.12,12.19-.04.07-.08.14-.13.22-.08.14-.17.29-.25.44-1.96,3.55-3.08,7.63-3.08,11.97s1.12,8.42,3.08,11.97c.08.15.16.3.25.44l9.19,5.31v8.8c3.63,2.08,7.83,3.27,12.31,3.27s8.68-1.19,12.31-3.27v-8.8l9.19-5.31c2.12-3.65,3.33-7.89,3.33-12.41s-1.21-8.77-3.33-12.41ZM61.12,113.29c-4.53,0-8.19-3.67-8.19-8.19s3.67-8.19,8.19-8.19,8.19,3.67,8.19,8.19-3.66,8.19-8.19,8.19ZM75.7,115.5h-3.53c-1.83,0-2.98-1.98-2.06-3.56l1.77-3.06c.46-.79,1.26-1.19,2.06-1.19s1.6.39,2.06,1.19l1.77,3.06c.91,1.58-.23,3.56-2.06,3.56ZM86.74,113.29c-4.52,0-8.19-3.67-8.19-8.19s3.67-8.19,8.19-8.19,8.19,3.67,8.19,8.19-3.67,8.19-8.19,8.19Z"/>
    </g>
  </g>
</svg>